<?xml version="1.0" encoding="utf-8"?>
<!-- Generator: Adobe Illustrator 18.1.1, SVG Export Plug-In . SVG Version: 6.00 Build 0)  -->
<!DOCTYPE svg PUBLIC "-//W3C//DTD SVG 1.1//EN" "http://www.w3.org/Graphics/SVG/1.1/DTD/svg11.dtd">
<svg version="1.1"
	 id="svg3020" sodipodi:docname="logo.svg" inkscape:version="0.48.4 r9939" xmlns:inkscape="http://www.inkscape.org/namespaces/inkscape" xmlns:sodipodi="http://sodipodi.sourceforge.net/DTD/sodipodi-0.dtd" xmlns:svg="http://www.w3.org/2000/svg" xmlns:rdf="http://www.w3.org/1999/02/22-rdf-syntax-ns#" xmlns:dc="http://purl.org/dc/elements/1.1/" xmlns:cc="http://creativecommons.org/ns#"
	 xmlns="http://www.w3.org/2000/svg" xmlns:xlink="http://www.w3.org/1999/xlink" x="0px" y="0px"
	 viewBox="-1560 365.2 1400 1121.5" enable-background="new -1560 365.2 1400 1121.5" xml:space="preserve">
<sodipodi:namedview  fit-margin-bottom="0" fit-margin-right="0" inkscape:current-layer="g3028" inkscape:window-maximized="1" inkscape:window-y="27" inkscape:window-x="0" inkscape:window-height="1026" inkscape:window-width="1920" inkscape:pageshadow="2" inkscape:pageopacity="0" gridtolerance="10" fit-margin-top="0" fit-margin-left="0" objecttolerance="10" bordercolor="#666666" borderopacity="1" id="namedview3022" guidetolerance="10" inkscape:cx="262.22163" inkscape:cy="33.31848" pagecolor="#ffffff" inkscape:zoom="2.6084395" showgrid="false">
	</sodipodi:namedview>
<g id="g3028" transform="matrix(1.25,0,0,-1.25,-8.0768312e-5,55.999998)" inkscape:groupmode="layer" inkscape:label="ink_ext_XXXXXX">
	<g id="g3030" transform="matrix(0.0633338,0,0,0.06283724,2.3691734e-5,0)">
		<path id="path3032" inkscape:connector-curvature="0" fill="#FFFFFF" d="M-3135.7-12178.9c-12.5-42.3-31-80.4-56.6-114.3
			c-25-33.3-57.2-60.1-95.3-80.4c-38.1-20.2-82.8-30.4-132.8-30.4c-55.4,0-101.2,11.9-138.1,35.1c-36.9,23.2-66.7,53.6-89.3,90.5
			s-38.7,78-47.6,124.4c-8.9,45.8-13.7,92.3-13.7,139.3c0,48.2,5.4,94.7,16.7,139.3c10.7,44.1,28.6,83.3,52.4,117.9
			c24.4,33.9,54.2,61.3,90.5,81.6c36.3,20.2,79.2,30.4,129.2,30.4c58.3,0,107.2-10.7,145.3-32.7c38.7-22,69.1-51.2,92.9-88.1
			c23.2-36.9,40.5-79.2,50-126.8c10.1-47.6,14.9-98.2,14.9-151.8C-3117.3-12091.4-3123.2-12136-3135.7-12178.9z M-3117.3-11412.7
			v-173.2h-4.8c-43.5,75-97.6,128.6-161.9,160.7c-64.3,31.6-139.3,47.6-224.4,47.6c-90.5,0-170.3-17.9-239.3-52.4
			c-69.7-35.1-128-82.2-174.4-141.7c-47-59.5-82.2-128-106.6-206c-24.4-78-36.3-158.4-36.3-242.3c0-88.7,10.7-172.7,31-251.8
			c20.8-79.8,54.2-148.8,98.8-208.4c45.2-59.5,103-106.6,173.2-140.5c70.2-34.5,153.6-51.2,250.6-51.2c78.6,0,153.6,16.7,224.4,48.8
			c70.8,32.7,125.6,82.8,164.3,151.8h4.8v-170.3c1.8-91.7-20.2-167.9-66.7-228c-45.8-60.1-119.1-90.5-219.7-90.5
			c-63.7,0-119.7,13.1-167.9,38.7c-48.8,25.6-81,72.6-97.6,139.3h-353.6c5.4-73.2,25.6-136.9,61.9-189.3
			c35.7-53,81-95.9,135.1-129.2c54.2-33.3,114.3-57.8,180.4-73.8c66.1-16.1,131-23.8,194.1-23.8c148.8,0,267.3,20.2,356,60.1
			c88.7,39.9,156.6,89.3,203,146.5c47,57.8,77.4,119.7,91.7,186.9c14.3,66.7,21.4,126.2,21.4,178v1214.5h-337.6V-11412.7z
			 M-4328.8-11524c-35.1,45.8-83.3,82.2-144.1,107.8c-60.7,26.2-139.3,38.7-234.6,38.7c-75,0-148.8-17.3-220.9-51.2
			c-72-34.5-130.4-89.3-175.6-164.3h-7.7v180.4h-338.8v-1296.7h356v679.9c0,132.2,21.4,226.8,64.9,284.6
			c43.5,57.8,113.7,86.3,210.8,86.3c85.1,0,144.7-26.2,178-79.2c33.3-52.4,50-132.8,50-239.3v-732.3h356v797.8
			c0,80.4-7.1,153.6-21.4,219.7C-4268.7-11626.4-4293.7-11570.4-4328.8-11524L-4328.8-11524z M-6022-11212h356v293.5h-356V-11212z
			 M-6022-12709.3h356v1296.7h-356V-12709.3z M-6335.1-11524c-35.1,45.8-83.3,82.2-144.1,107.8c-60.7,26.2-139.3,38.7-234.6,38.7
			c-66.7,0-135.1-17.3-205.4-51.2c-70.2-34.5-128-89.3-173.2-164.3h-7.1v674.5h-356v-1790.8h356v679.9c0,132.2,22,226.8,64.9,284.6
			c43.5,57.8,113.7,86.3,210.8,86.3c85.1,0,144.7-26.2,178-79.2c33.3-52.4,50-132.8,50-239.3v-732.3h356v797.8
			c0,80.4-7.1,153.6-21.4,219.7C-6275.6-11626.4-6300-11570.4-6335.1-11524z M-7825.3-11023.9h-356v-388.8h-519.1l-283.4-888.3h-4.8
			l-293.5,888.3h-308.4v22.6c-28.6,8.3-54.2,12.5-78,12.5c-45.2,0-88.7-6.5-130.4-20.2c-41.7-13.1-81-32.1-117.9-56.6
			c-36.9-24.4-69.7-53.6-97.6-88.1c-28.6-34.5-51.2-71.4-67.9-111.9h-4.8v241.1h-338.8v-1296.7h356v584.6c0,58.3,6,113.1,17.3,163.1
			c11.9,50,31.6,94.1,58.9,131.6c27.4,37.5,64.3,67.3,108.9,89.3c45.2,21.4,100.6,32.7,165.5,32.7c21.4,0,44.1-1.2,67.9-3.6
			c23.2-2.4,43.5-5.4,60.1-8.9v120.3l384-1028.8c10.1-25,14.9-51.8,14.9-80.4c0-38.7-11.3-73.8-33.9-105.4
			c-22.6-31.6-57.2-50-104.2-55.4c-35.1-1.8-70.2-1.2-105.4,2.4c-35.1,3.6-69.7,6.5-103,10.1v-293.5c36.3-3.6,73.2-6.5,108.9-8.9
			c36.3-2.4,72-3.6,108.9-3.6c122,0,217.3,22.6,285.8,67.9c68.5,45.2,122,120.3,160.7,225.6l476.9,1281.8v-63.1h215.5v-765
			c0-64.9,10.7-117.9,32.7-157.8c21.4-40.5,51.2-70.8,89.3-92.9c37.5-22,81-36.3,130.4-44.1c49.4-7.7,101.8-11.3,156.6-11.3
			c35.1,0,70.8,1.2,107.8,2.4c36.9,1.8,70.2,4.8,100.6,10.1v276.2c-16.7-3.6-34.5-6-52.4-7.7c-18.5-1.8-37.5-2.4-57.8-2.4
			c-60.1,0-100,10.1-120.3,30.4c-20.2,20.2-30.4,60.1-30.4,120.3v642.4h260.8v238.1h-260.8
			C-7825.3-11412.7-7825.3-11023.9-7825.3-11023.9z M-11510.5-11921.7c1.8,25,7.1,53.6,16.1,85.1c8.9,31.6,25,61.9,47.6,90.5
			c22.6,28.6,52.4,52.4,90.5,71.4c37.5,19.1,84.5,29.2,141.7,29.2c86.9,0,151.8-23.2,194.7-70.3c42.3-47,72-115.5,89.3-206
			C-10931.2-11921.7-11510.5-11921.7-11510.5-11921.7z M-10599.6-11859.2c-23.8,92.3-61.3,173.8-114.3,245.9
			c-53,72-120.3,129.2-201.8,172.1c-82.2,42.9-178,64.3-288.7,64.3c-98.8,0-188.7-17.9-269.7-52.4c-81-35.1-151.2-83.3-209.6-144.1
			c-58.9-61.3-103.6-133.4-135.7-216.7c-31.6-83.9-47.6-173.8-47.6-270.9c0-100.6,15.5-192.3,46.4-275.6
			c31-83.3,75-155.4,131.6-215.5c57.2-60.1,126.2-106.6,208.4-139.3c82.2-32.7,173.8-48.8,275.6-48.8
			c147.1,0,272.7,33.3,376.3,100.6c103.6,66.7,180.4,178,230.4,333.4h-313.7c-11.9-39.9-43.5-78-95.3-114.3
			c-51.8-35.7-113.7-54.2-185.7-54.2c-100.6,0-177.4,25.6-231,77.4c-53.6,51.8-82.8,135.7-87.5,250.6h935.3
			C-10568-12047.3-10576.4-11950.8-10599.6-11859.2z M-12516-12297.9h-5.4l-273.3,885.3h-373.9l444.1-1296.7h396.5l439.4,1296.7
			h-353.6C-12242.8-11412.7-12516-12297.9-12516-12297.9z M-14174.7-11939.5h868v306h-868v384h945.4v331h-1339.5v-1790.8h1359.8v331
			h-965.7C-14174.7-12378.3-14174.7-11939.5-14174.7-11939.5z M-8333.1-9872.5c8.9,31.6,25,61.9,47.6,90.5
			c22.6,28.6,53,52.4,90.5,71.4c37.5,19.1,84.5,28.6,141.7,28.6c86.9,0,151.8-23.2,194.7-70.3c42.3-47,72-115.5,89.3-205.4h-579.3
			C-8348-9932.6-8342.6-9904-8333.1-9872.5z M-8659.4-10373.8c31-83.3,75-155.4,131.6-215.5c57.2-60.1,126.2-106.6,208.4-139.3
			c82.2-32.7,173.8-48.8,275.6-48.8c147.1,0,272.7,33.3,376.3,100.6c103.6,66.7,180.4,178,231,333.4h-313.7
			c-11.9-39.9-43.5-78-95.3-114.3c-51.8-35.7-113.7-54.2-185.7-54.2c-100.6,0-177.4,25.6-231,78c-53.6,51.8-82.8,135.7-88.1,250.6
			h935.9c6.5,100-1.8,196.5-25,288.7c-23.2,91.7-61.3,173.8-114.3,245.9c-52.4,72-119.7,129.2-201.8,172.1
			c-82.2,42.9-178,63.7-288.1,63.7c-98.8,0-188.7-17.9-269.7-52.4c-81-35.1-150.6-83.3-209.6-144.1
			c-58.3-61.3-103.6-133.4-135.7-216.7c-31.6-83.9-47.6-173.8-47.6-270.9C-8705.8-10198.1-8690.3-10290.4-8659.4-10373.8
			L-8659.4-10373.8z M-9155.3-10160.6c0,58.3,6,113.1,17.9,163.1c11.9,50,31.6,94.1,58.9,131.6c27.4,37.5,64.3,67.3,108.9,89.3
			c45.2,22,100.6,32.7,165.5,32.7c22,0,44.1-1.2,67.9-3.6c23.2-2.4,43.5-5.4,60.1-8.9v331c-28.6,8.3-54.2,12.5-78,12.5
			c-45.2,0-88.7-6.5-130.4-20.2c-41.7-13.1-81-32.1-117.9-56.6c-36.9-24.4-69.7-53.6-97.6-88.1c-28.6-34.5-51.2-71.4-67.9-111.9
			h-4.8v240.5h-338.8v-1296.7h356C-9155.3-10745.3-9155.3-10160.6-9155.3-10160.6z M-10065.6-10564.9h7.1v-180.4h338.8v1296.7h-356
			v-679.3c0-132.2-21.4-226.8-64.9-284.6c-43.5-57.8-113.7-86.3-210.8-86.3c-85.1,0-144.7,26.2-178,79.2
			c-33.3,52.4-50,132.8-50,239.3v732.3h-356v-797.8c0-80.4,7.1-153.6,21.4-219.7c14.3-66.1,38.7-122,73.8-167.9
			c35.1-45.8,82.8-81.6,144.1-106.6c60.7-25,139.3-37.5,234.6-37.5c75,0,148.8,16.7,220.9,50
			C-10169.2-10694.1-10110.8-10639.9-10065.6-10564.9z M-11661.1-10451.8c0-65.5,10.7-117.9,32.7-157.8
			c21.4-39.9,51.8-70.8,88.7-92.9c37.5-22,81-36.3,130.4-44.1c49.4-7.7,101.8-11.3,156.6-11.3c35.1,0,70.8,1.2,107.8,2.4
			c36.9,1.8,70.2,4.8,100.6,10.1v275.6c-16.7-3.6-34.5-6-53-7.7c-18.5-1.8-37.5-2.4-57.8-2.4c-60.1,0-100,10.1-120.3,29.8
			c-20.2,20.2-30.4,60.1-30.4,120.3v642.4h260.8v238.1h-260.8v388.8h-356v-388.8h-215.5v-238.1h215.5v-764.4H-11661.1z
			 M-13085.8-10633.3c35.1-45.8,83.3-81.6,144.1-106.6c61.3-25,139.3-37.5,234.6-37.5c75,0,148.8,16.7,220.9,50
			c72,33.3,130.4,87.5,175.6,163.1h7.7v-180.4h338.8V-9448h-356v-679.9c0-132.2-21.4-226.8-64.9-284.6
			c-43.5-57.8-113.7-86.3-210.8-86.3c-85.1,0-144.7,26.2-178,79.2c-33.3,52.4-50,132.8-50,239.3v732.3h-356v-797.8
			c0-80.4,7.1-153.6,21.4-219.7C-13145.9-10531.5-13120.9-10587.5-13085.8-10633.3z M-14174.7-10005.2h750.1v306h-750.1v413.8h865.6
			v331h-1259.2v-1790.8h394.1v740"/>
		<path id="path3034" inkscape:connector-curvature="0" fill="#FFFFFF" d="M-17050.8-11110.8c-195.9,3.6-351.9,166.1-348.9,363.8
			c3.6,197.7,164.9,354.8,360.8,351.3c195.9-3.6,351.9-166.1,348.3-363.8C-16693-10956.6-16854.9-11113.8-17050.8-11110.8z
			 M-15101-10791.1c0,3,0,6.5,0,9.5c-2.4,853.1-560.8,1575.3-1331.8,1824.2l-1096.6-1100.8c-207.2-182.2-353-398.3-357.8-680.5
			c-8.3-469.1,363.2-856.1,828.7-864.5c466.2-8.3,850.2,365.5,858.5,834.7c6,338.8-185.8,634.6-467.9,775.7l367.9,387
			c472.7-304.2,675.1-740,667.4-1192.5c-13.1-774-647.1-1389.5-1415.1-1376.5c-768,13.7-1379.4,651.9-1366.3,1425.3
			c4.8,300.1,162.5,687,344.7,897.2l-359.6,375.1c-88.7-94.7-167.3-198.3-235.2-309.6c-147.6-265.5-255.4-588.2-276.8-874
			c-2.4-34.5-4.8-69.1-5.4-104.2c0-43.5,1.8-86.3,4.2-129.2c1.2-17.9,1.2-35.7,2.4-53c62.5-709.1,505.4-1311,1125.2-1592.6
			c4.8-2.4,8.9-4.8,13.7-6.5c45.8-20.2,92.9-37.5,140.5-54.8c13.7-4.8,26.8-10.1,40.5-14.9c40.5-13.1,82.2-23.8,123.2-34.5
			c21.4-5.4,42.3-11.9,64.3-16.7c35.7-7.7,72.6-13.1,108.9-18.5c28-4.2,56-9.5,84.5-13.1c32.7-3.6,66.1-4.8,98.8-7.1
			c33.3-1.8,66.1-4.8,99.4-4.8c31,0,61.9,1.8,92.9,3c34.5,1.2,69.1,1.8,103.6,5.4c32.7,3,64.9,8.3,97.6,13.1
			c30.4,4.8,61.3,8.3,91.1,13.7c38.7,7.7,76.2,17.3,113.7,27.4c22.6,6,45.2,10.7,67.3,17.3c47,13.7,92.3,30.4,137.5,48.2
			c11.9,4.2,23.8,8.3,35.1,12.5c674.5,276.2,1158.5,927.6,1196.1,1700.9C-15104-10842.3-15101-10817.3-15101-10791.1"/>
	</g>
</g>
</svg>
