<?xml version="1.0" encoding="utf-8"?>
<!-- Generator: Adobe Illustrator 19.0.0, SVG Export Plug-In . SVG Version: 6.00 Build 0)  -->
<!DOCTYPE svg PUBLIC "-//W3C//DTD SVG 1.1//EN" "http://www.w3.org/Graphics/SVG/1.1/DTD/svg11.dtd">
<svg version="1.1" id="Layer_1" xmlns="http://www.w3.org/2000/svg" xmlns:xlink="http://www.w3.org/1999/xlink" x="0px" y="0px"
	 viewBox="0 0 260.6 62.9" enable-background="new 0 0 260.6 62.9" xml:space="preserve">
<g>
	<polygon opacity="0" fill-rule="evenodd" clip-rule="evenodd" fill="#FFFFFF" points="1.3,0.5 259,0.5 259,63 1.3,63 1.3,0.5 	"/>
	<g>
		<defs>
			<polygon id="SVGID_1_" points="1.3,62.9 259,62.9 259,0.6 1.3,0.6 1.3,62.9 			"/>
		</defs>
		<clipPath id="SVGID_2_">
			<use xlink:href="#SVGID_1_"  overflow="visible"/>
		</clipPath>
		<path clip-path="url(#SVGID_2_)" fill="#FFFFFF" d="M84.1,10.2c4.5,0,4.5,0,4.5,0c1.9,0,2.7,0.6,2.7,1.9c0,1-0.6,1.8-1.7,2l0,0
			l0,0c0.8,0.3,1.4,1,1.4,1.8c0,2.1-1.8,2.9-3.7,2.9c-5,0-5,0-5,0L84.1,10.2z M85.4,16.7c1.7,0,1.7,0,1.7,0c0.5,0,1.2-0.1,1.2-0.9
			c0-0.6-0.4-0.8-1-0.8c-1.5,0-1.5,0-1.5,0L85.4,16.7z M86.1,13.5c1.5,0,1.5,0,1.5,0c0.4,0,1-0.1,1-0.6s-0.4-0.6-0.9-0.6
			c-1.4,0-1.4,0-1.4,0L86.1,13.5z"/>
		<path clip-path="url(#SVGID_2_)" fill="#FFFFFF" d="M92.3,14.3c0.4-1.6,1.7-2,3.2-2c1.3,0,3.2,0.1,3.2,1.6c0,1-0.8,3.9-0.8,4.3
			c0,0.5,0,0.3,0,0.5c-2.3,0-2.3,0-2.3,0c-0.1-0.1-0.1-0.4-0.1-0.5l0,0c-0.5,0.5-1.3,0.8-2,0.8c-1,0-2-0.5-2-1.8
			c0-1.6,1.3-2,3.1-2.1c0.8-0.1,1.8,0,1.8-0.8c0-0.5-0.4-0.6-0.8-0.6c-0.4,0-0.8,0.3-0.9,0.6H92.3z M94.6,17.5
			c0.9,0,1.2-0.5,1.4-1.5c-0.4,0.3-0.9,0.3-1.4,0.3c-0.4,0.1-0.8,0.3-0.8,0.8S94.3,17.5,94.6,17.5L94.6,17.5z"/>
		<path clip-path="url(#SVGID_2_)" fill="#FFFFFF" d="M100.5,12.5c2.3,0,2.3,0,2.3,0c-0.1,1-0.1,1-0.1,1l0,0
			c0.4-0.6,1.3-1.1,1.8-1.1s0.6,0,0.9,0.1c-0.4,2.1-0.4,2.1-0.4,2.1c-0.4-0.1-0.6-0.3-1-0.3c-1,0-1.5,0.5-1.8,1.8
			c-0.5,2.6-0.5,2.6-0.5,2.6c-2.6,0-2.6,0-2.6,0L100.5,12.5z"/>
		<path clip-path="url(#SVGID_2_)" fill="#FFFFFF" d="M109.6,14.8c0-0.3,0-0.5-0.3-0.6c0-0.1-0.3-0.1-0.5-0.1c-1.2,0-1.4,1.4-1.4,2
			c0,0.5,0.1,1.1,0.9,1.1c0.6,0,0.9-0.6,1-1c2.3,0,2.3,0,2.3,0c-0.4,1.9-1.5,2.8-3.5,2.8c-2.7,0-3.2-1.8-3.2-2.9
			c0-2.1,1.4-3.8,3.8-3.8c1.8,0,3.1,0.8,3.1,2.5H109.6z"/>
		<path clip-path="url(#SVGID_2_)" fill="#FFFFFF" d="M119,17c-0.1,0.4-0.6,2-3.5,2c-2.3,0-3.2-1.3-3.2-2.8c0-2.9,2.3-3.9,3.8-3.9
			c1.4,0,3.2,0.8,3.2,2.8c0,0.4,0,0.8-0.1,1.1c-4.6,0-4.6,0-4.6,0c0,0.6,0.3,1.1,1,1.1c0.5,0,0.8-0.1,0.9-0.4C119,17,119,17,119,17
			L119,17z M117,15c0-0.1,0-0.1,0-0.3c0-0.5-0.3-0.9-0.9-0.9s-1.2,0.4-1.3,1.1C117,15,117,15,117,15L117,15z"/>
		<polygon clip-path="url(#SVGID_2_)" fill="#FFFFFF" points="121.6,10.2 124.1,10.2 122.3,18.7 119.9,18.7 121.6,10.2 		"/>
		
			<polygon clip-path="url(#SVGID_2_)" fill="none" stroke="#FFFFFF" stroke-width="0.1252" stroke-linecap="round" stroke-linejoin="round" stroke-miterlimit="10" points="
			121.6,10.2 124.1,10.2 122.3,18.7 119.9,18.7 121.6,10.2 		"/>
		<path clip-path="url(#SVGID_2_)" fill="#FFFFFF" d="M127.9,12.3c1.9,0,3.2,0.9,3.2,2.8c0,1.6-0.9,3.9-4,3.9c-1.7,0-3.2-0.9-3.2-3
			C123.9,14,125.4,12.3,127.9,12.3L127.9,12.3z M127.3,17.2c1,0,1.4-1.4,1.4-2c0-0.8-0.3-1.1-0.9-1.1c-1,0-1.3,1.4-1.3,2.1
			C126.5,16.7,126.6,17.2,127.3,17.2L127.3,17.2z"/>
		<path clip-path="url(#SVGID_2_)" fill="#FFFFFF" d="M132.8,12.5c2.3,0,2.3,0,2.3,0c-0.1,0.9-0.1,0.9-0.1,0.9l0,0
			c0.5-0.6,1.3-1,2-1c1.2,0,2,0.5,2,1.8c0,0.3-0.1,0.6-0.1,1.1c-0.8,3.5-0.8,3.5-0.8,3.5c-2.4,0-2.4,0-2.4,0
			c0.5-2.9,0.5-2.9,0.5-2.9c0.1-0.3,0.3-0.8,0.3-1c0-0.4-0.3-0.6-0.6-0.6c-0.8,0-1.2,0.6-1.3,1.3c-0.6,3.3-0.6,3.3-0.6,3.3
			c-2.4,0-2.4,0-2.4,0L132.8,12.5z"/>
		<path clip-path="url(#SVGID_2_)" fill="#FFFFFF" d="M140.3,14.3c0.4-1.6,1.8-2,3.3-2c1.2,0,3.1,0.1,3.1,1.6c0,1-0.8,3.9-0.8,4.3
			c0.1,0.5,0,0.3,0.1,0.5c-2.4,0-2.4,0-2.4,0c0-0.1,0-0.4,0-0.5c-0.1,0-0.1,0-0.1,0c-0.4,0.5-1.2,0.8-1.9,0.8c-1.2,0-2-0.5-2-1.8
			c0-1.6,1.3-2,3.1-2.1c0.6-0.1,1.8,0,1.8-0.8c0-0.5-0.4-0.6-0.8-0.6c-0.5,0-0.9,0.3-1,0.6H140.3z M142.8,17.5
			c0.8,0,1.2-0.5,1.3-1.5c-0.4,0.3-0.8,0.3-1.3,0.3c-0.4,0.1-0.8,0.3-0.8,0.8S142.4,17.5,142.8,17.5L142.8,17.5z"/>
		<path clip-path="url(#SVGID_2_)" fill="#FFFFFF" d="M88,26.6c0-0.4-0.1-0.5-0.3-0.8c-0.3-0.1-0.5-0.1-0.8-0.1
			c-0.5,0-1.2,0.1-1.2,0.6c0,0.8,1.4,0.8,2.3,1c1.5,0.6,2,1.4,2,2.4c0,2.1-2.2,3.1-4.1,3.1c-1.9,0-3.8-0.9-3.7-3.1
			c2.7,0,2.7,0,2.7,0c0,0.5,0.1,0.8,0.3,1c0.3,0.1,0.6,0.3,1,0.3c0.5,0,1.2-0.4,1.2-0.9c0-0.6-0.9-0.8-2-1.1s-2.2-0.9-2.2-2.4
			c0-1.9,1.9-2.8,3.7-2.8c1.9,0,3.6,0.6,3.6,2.8C88,26.6,88,26.6,88,26.6L88,26.6z"/>
		<path clip-path="url(#SVGID_2_)" fill="#FFFFFF" d="M97.1,32.6c-2.3,0-2.3,0-2.3,0c0.1-0.8,0.1-0.8,0.1-0.8l0,0
			c-0.5,0.6-1.3,0.9-2,0.9c-1.2,0-2-0.4-2-1.6c0-0.5,0.3-1.3,0.9-4.8c2.4,0,2.4,0,2.4,0c-0.6,3.3-0.6,3.3-0.6,3.3
			c-0.1,0.4-0.1,0.6-0.1,0.6c0,0.5,0.4,0.6,0.8,0.6c1,0,1.2-1.1,1.3-2c0.5-2.5,0.5-2.5,0.5-2.5c2.6,0,2.6,0,2.6,0L97.1,32.6z"/>
		<path clip-path="url(#SVGID_2_)" fill="#FFFFFF" d="M99.9,26.4c2.3,0,2.3,0,2.3,0c-0.1,0.8-0.1,0.8-0.1,0.8l0,0
			c0.4-0.6,1-0.9,1.8-0.9c1.8,0,2.3,1.5,2.3,2.5c0,1.9-1,4-3.2,4c-0.6,0-1.4,0-1.9-0.9c-0.5,2.8-0.5,2.8-0.5,2.8c-2.4,0-2.4,0-2.4,0
			L99.9,26.4z M103.7,29.1c0-0.6-0.3-1.1-0.9-1.1c-1.2,0-1.3,1.5-1.3,2c0,0.3,0,1.1,0.9,1.1C103.3,31.1,103.7,29.9,103.7,29.1
			L103.7,29.1z"/>
		<path clip-path="url(#SVGID_2_)" fill="#FFFFFF" d="M113.5,30.9c-0.1,0.4-0.6,1.9-3.5,1.9c-2.3,0-3.2-1.3-3.2-2.8
			c0-2.9,2.3-3.8,3.8-3.8c1.4,0,3.2,0.8,3.2,2.8c0,0.3,0,0.6-0.1,1c-4.6,0-4.6,0-4.6,0c0,0.8,0.3,1.3,1,1.3c0.5,0,0.9-0.3,1-0.4
			C113.5,30.9,113.5,30.9,113.5,30.9L113.5,30.9z M111.5,28.7v-0.1c0-0.5-0.3-0.9-0.9-0.9c-0.6,0-1.2,0.4-1.3,1H111.5z"/>
		<path clip-path="url(#SVGID_2_)" fill="#FFFFFF" d="M115.6,26.4c2.3,0,2.3,0,2.3,0c-0.1,1-0.1,1-0.1,1l0,0
			c0.4-0.6,1.2-1.1,1.8-1.1c0.5,0,0.6,0,0.9,0.1c-0.4,2-0.4,2-0.4,2c-0.4,0-0.6-0.1-1-0.1c-1,0-1.5,0.5-1.8,1.8
			c-0.5,2.6-0.5,2.6-0.5,2.6c-2.6,0-2.6,0-2.6,0L115.6,26.4z"/>
		<path clip-path="url(#SVGID_2_)" fill="#FFFFFF" d="M124.7,28.7c0-0.3,0-0.5-0.3-0.6c-0.1-0.1-0.3-0.1-0.5-0.1
			c-1.2,0-1.4,1.4-1.4,1.9c0,0.6,0.1,1.3,0.9,1.3c0.6,0,0.9-0.6,1-1c2.3,0,2.3,0,2.3,0c-0.4,1.8-1.5,2.6-3.5,2.6
			c-2.7,0-3.2-1.6-3.2-2.8c0-2.3,1.4-3.8,3.8-3.8c1.8,0,3.1,0.8,3.1,2.5H124.7z"/>
		<path clip-path="url(#SVGID_2_)" fill="#FFFFFF" d="M131.4,26.2c1.9,0,3.1,0.9,3.1,2.8c0,1.6-0.9,3.8-3.8,3.8
			c-1.8,0-3.2-0.8-3.2-2.9C127.4,27.9,128.8,26.2,131.4,26.2L131.4,26.2z M130.7,31.1c1,0,1.3-1.5,1.3-2c0-0.8-0.1-1.1-0.8-1.1
			c-1,0-1.4,1.4-1.4,2C129.8,30.5,130.1,31.1,130.7,31.1L130.7,31.1z"/>
		<path clip-path="url(#SVGID_2_)" fill="#FFFFFF" d="M136.2,26.4c2.3,0,2.3,0,2.3,0c-0.1,0.9-0.1,0.9-0.1,0.9l0,0
			c0.5-0.6,1.3-1,2-1c0.8,0,1.5,0.3,1.7,1c0.6-0.6,1.3-1,2.2-1c1.3,0,2,0.5,2,1.9c0,0.3-0.1,0.6-0.1,1c-0.8,3.5-0.8,3.5-0.8,3.5
			c-2.6,0-2.6,0-2.6,0c0.8-3,0.8-3,0.8-3c0-0.1,0.1-0.8,0.1-0.9c0-0.4-0.3-0.6-0.6-0.6c-0.5,0-0.9,0.3-0.9,0.8
			c-0.9,3.8-0.9,3.8-0.9,3.8c-2.4,0-2.4,0-2.4,0c0.8-3.4,0.8-3.4,0.8-3.4c0-0.1,0-0.4,0-0.5c0-0.4-0.1-0.6-0.5-0.6
			c-0.6,0-0.9,0.4-1,1c-0.9,3.5-0.9,3.5-0.9,3.5c-2.4,0-2.4,0-2.4,0L136.2,26.4z"/>
		<path clip-path="url(#SVGID_2_)" fill="#FFFFFF" d="M148.1,26.4c2.3,0,2.3,0,2.3,0c-0.1,0.8-0.1,0.8-0.1,0.8l0,0
			c0.5-0.6,1-0.9,1.8-0.9c1.8,0,2.3,1.5,2.3,2.5c0,1.9-0.9,4-3.1,4c-0.8,0-1.4,0-1.9-0.9c-0.6,2.8-0.6,2.8-0.6,2.8
			c-2.4,0-2.4,0-2.4,0L148.1,26.4z M152,29.1c0-0.6-0.1-1.1-0.9-1.1c-1,0-1.3,1.5-1.3,2c0,0.3,0.1,1.1,0.9,1.1
			C151.7,31.1,152,29.9,152,29.1L152,29.1z"/>
		<path clip-path="url(#SVGID_2_)" fill="#FFFFFF" d="M161.4,32.6c-2.4,0-2.4,0-2.4,0c0.3-0.8,0.3-0.8,0.3-0.8c-0.1,0-0.1,0-0.1,0
			c-0.5,0.6-1.2,0.9-2,0.9c-1,0-2-0.4-2-1.6c0-0.5,0.3-1.3,1-4.8c2.4,0,2.4,0,2.4,0c-0.8,3.3-0.8,3.3-0.8,3.3
			c-0.1,0.4-0.1,0.6-0.1,0.6c0,0.5,0.4,0.6,0.8,0.6c1.2,0,1.2-1.1,1.3-2c0.6-2.5,0.6-2.5,0.6-2.5c2.4,0,2.4,0,2.4,0L161.4,32.6z"/>
		<path clip-path="url(#SVGID_2_)" fill="#FFFFFF" d="M166.9,26.4c1.3,0,1.3,0,1.3,0c-0.3,1.5-0.3,1.5-0.3,1.5c-1.4,0-1.4,0-1.4,0
			c-0.4,2-0.4,2-0.4,2c0,0.3-0.1,0.4-0.1,0.6s0.1,0.4,0.5,0.4s0.6,0,0.8,0c-0.4,1.8-0.4,1.8-0.4,1.8c-0.4,0-0.8,0.1-1.3,0.1
			s-1,0-1.5-0.3c-0.4-0.3-0.6-0.8-0.6-1.3c0-0.3,0-0.5,0.1-0.9c0.5-2.5,0.5-2.5,0.5-2.5c-1,0-1,0-1,0c0.3-1.5,0.3-1.5,0.3-1.5
			c1.2,0,1.2,0,1.2,0c0.4-1.9,0.4-1.9,0.4-1.9c2.4,0,2.4,0,2.4,0L166.9,26.4z"/>
		<path clip-path="url(#SVGID_2_)" fill="#FFFFFF" d="M169.3,26.4h2.4l-1.4,6.3h-2.4L169.3,26.4L169.3,26.4z M171.8,25.7h-2.4
			l0.3-1.8h2.6L171.8,25.7L171.8,25.7z"/>
		
			<path clip-path="url(#SVGID_2_)" fill="none" stroke="#FFFFFF" stroke-width="0.1252" stroke-linecap="round" stroke-linejoin="round" stroke-miterlimit="10" d="
			M169.3,26.4h2.4l-1.4,6.3h-2.4L169.3,26.4L169.3,26.4z M171.8,25.7h-2.4l0.3-1.8h2.6L171.8,25.7L171.8,25.7z"/>
		<path clip-path="url(#SVGID_2_)" fill="#FFFFFF" d="M173.1,26.4c2.3,0,2.3,0,2.3,0c-0.1,0.8-0.1,0.8-0.1,0.8l0,0
			c0.4-0.5,1.2-0.9,1.9-0.9c1.2,0,2.2,0.4,2.2,1.6c0,0.4-0.1,0.8-0.3,1.3c-0.8,3.5-0.8,3.5-0.8,3.5c-2.4,0-2.4,0-2.4,0
			c0.6-2.9,0.6-2.9,0.6-2.9c0.1-0.4,0.3-0.8,0.3-1c0-0.4-0.4-0.6-0.8-0.6c-0.8,0-1,0.5-1.2,1.3c-0.8,3.3-0.8,3.3-0.8,3.3
			c-2.4,0-2.4,0-2.4,0L173.1,26.4z"/>
		<path clip-path="url(#SVGID_2_)" fill="#FFFFFF" d="M186.4,31.5c-0.4,1.9-0.8,3.4-3.8,3.4c-0.8,0-3.1-0.1-2.9-2.1
			c2.4,0,2.4,0,2.4,0c0,0.3,0,0.4,0.1,0.5c0.1,0.1,0.4,0.1,0.6,0.1c0.8,0,0.9-0.5,1-1.1s0.1-0.6,0.1-0.6l0,0
			c-0.4,0.4-0.9,0.6-1.5,0.6c-1.5,0-2.4-0.9-2.4-2.4c0-1.9,1-3.6,3.1-3.6c0.8,0,1.5,0.3,1.9,1l0,0c0.1-0.9,0.1-0.9,0.1-0.9
			c2.3,0,2.3,0,2.3,0L186.4,31.5z M182.4,29.7c0,0.5,0.3,1,0.8,1c1.2,0,1.4-1.4,1.4-1.8c0-0.5,0-1-0.9-1
			C182.7,28,182.4,29,182.4,29.7L182.4,29.7z"/>
		<path clip-path="url(#SVGID_2_)" fill="#FFFFFF" d="M91.2,43.3c-0.1,0.9-0.8,3.5-4.5,3.5c-2.6,0-3.8-1.6-3.8-4
			c0-2.8,1.8-5.1,4.9-5.1c1.9,0,3.7,0.9,3.7,3.5c-2.6,0-2.6,0-2.6,0c0-0.9-0.4-1.3-1.3-1.3c-1.4,0-2,1.6-2,2.9
			c0,0.6,0.3,1.8,1.5,1.8c0.8,0,1.3-0.5,1.4-1.3C91.2,43.3,91.2,43.3,91.2,43.3L91.2,43.3z"/>
		<path clip-path="url(#SVGID_2_)" fill="#FFFFFF" d="M98.6,44.6c-0.3,0.5-0.6,2-3.5,2c-2.3,0-3.2-1.3-3.2-2.8
			c0-2.9,2.3-3.8,3.8-3.8c1.4,0,3.2,0.8,3.2,2.6c0,0.4,0,0.8-0.1,1.1c-4.6,0-4.6,0-4.6,0c0,0.6,0.3,1.3,1,1.3c0.5,0,0.8-0.3,0.9-0.5
			H98.6z M96.7,42.6v-0.1c0-0.5-0.4-0.9-0.9-0.9c-0.8,0-1.2,0.4-1.3,1H96.7z"/>
		<path clip-path="url(#SVGID_2_)" fill="#FFFFFF" d="M100.8,40.3c2.3,0,2.3,0,2.3,0C103,41,103,41,103,41l0,0
			c0.4-0.5,1.2-0.9,1.9-0.9c1.2,0,2.2,0.4,2.2,1.6c0,0.3-0.1,0.8-0.3,1.3c-0.8,3.5-0.8,3.5-0.8,3.5c-2.4,0-2.4,0-2.4,0
			c0.6-2.9,0.6-2.9,0.6-2.9c0.1-0.4,0.3-0.8,0.3-1c0-0.5-0.4-0.6-0.8-0.6c-0.8,0-1,0.5-1.2,1.1c-0.8,3.4-0.8,3.4-0.8,3.4
			c-2.4,0-2.4,0-2.4,0L100.8,40.3z"/>
		<path clip-path="url(#SVGID_2_)" fill="#FFFFFF" d="M111.5,40.3c1.4,0,1.4,0,1.4,0c-0.4,1.5-0.4,1.5-0.4,1.5c-1.3,0-1.3,0-1.3,0
			c-0.5,2-0.5,2-0.5,2c0,0.1-0.1,0.4-0.1,0.6c0,0.1,0.1,0.4,0.5,0.4c0.4,0,0.6,0,0.9-0.1c-0.4,1.8-0.4,1.8-0.4,1.8
			c-0.5,0.1-0.9,0.1-1.4,0.3c-0.5,0-1,0-1.5-0.4c-0.4-0.1-0.6-0.6-0.6-1.1c0-0.4,0.1-0.6,0.1-0.9c0.6-2.5,0.6-2.5,0.6-2.5
			c-1.2,0-1.2,0-1.2,0c0.4-1.5,0.4-1.5,0.4-1.5c1,0,1,0,1,0c0.4-1.9,0.4-1.9,0.4-1.9c2.6,0,2.6,0,2.6,0L111.5,40.3z"/>
		<path clip-path="url(#SVGID_2_)" fill="#FFFFFF" d="M119.3,44.6c-0.1,0.5-0.6,2-3.3,2c-2.3,0-3.2-1.3-3.2-2.8
			c0-2.9,2.2-3.8,3.8-3.8c1.4,0,3.1,0.8,3.1,2.6c0,0.4,0,0.8-0.1,1.1c-4.5,0-4.5,0-4.5,0c0,0.6,0.1,1.3,0.9,1.3c0.6,0,0.9-0.3,1-0.5
			H119.3z M117.4,42.6v-0.1c0-0.5-0.3-0.9-0.9-0.9s-1,0.4-1.3,1H117.4z"/>
		<path clip-path="url(#SVGID_2_)" fill="#FFFFFF" d="M121.5,40.3c2.4,0,2.4,0,2.4,0c-0.3,1-0.3,1-0.3,1l0,0
			c0.5-0.8,1.3-1.1,1.9-1.1c0.4,0,0.6,0,0.9,0c-0.5,2.1-0.5,2.1-0.5,2.1c-0.3-0.1-0.6-0.1-0.9-0.1c-1,0-1.5,0.4-1.9,1.8
			c-0.5,2.6-0.5,2.6-0.5,2.6c-2.4,0-2.4,0-2.4,0L121.5,40.3z"/>
		<path clip-path="url(#SVGID_2_)" fill="#FFFFFF" d="M89.1,55.7c-0.4,1.6-1.4,2.5-3.2,2.5c-1.9,0-3.1-1.1-3.1-3
			c0-2.4,1.5-4.4,4-4.4c1.5,0,2.8,0.9,2.8,2.5c-1,0-1,0-1,0c0-1.1-0.8-1.8-1.8-1.8c-2,0-3.1,1.9-3.1,3.6c0,1.4,0.8,2.3,2.2,2.3
			c1.2,0,1.9-0.6,2.3-1.8C89.1,55.7,89.1,55.7,89.1,55.7L89.1,55.7z"/>
		<path clip-path="url(#SVGID_2_)" fill="#FFFFFF" d="M90.8,55.8c0,0.1,0,0.3,0,0.4c0,0.9,0.6,1.3,1.3,1.3c0.8,0,1.3-0.4,1.5-1
			c0.9,0,0.9,0,0.9,0c-0.3,1.1-1.3,1.8-2.4,1.8c-1.7,0-2.2-1.1-2.2-2c0-2,1.3-3.4,2.7-3.4c1.5,0,2.3,0.9,2.3,2.3
			c0,0.3-0.1,0.5-0.1,0.8C90.8,55.8,90.8,55.8,90.8,55.8L90.8,55.8z M94,55c0-0.8-0.3-1.5-1.3-1.5s-1.5,0.6-1.8,1.5H94z"/>
		<path clip-path="url(#SVGID_2_)" fill="#FFFFFF" d="M96.3,52.9c0.9,0,0.9,0,0.9,0c-0.3,0.8-0.3,0.8-0.3,0.8c0.1,0,0.1,0,0.1,0
			c0.4-0.5,1.2-0.9,1.8-0.9c1,0,1.5,0.4,1.5,1.4c0,0.1-0.1,0.5-0.3,1C99.5,58,99.5,58,99.5,58c-0.8,0-0.8,0-0.8,0c0.6-3,0.6-3,0.6-3
			c0-0.1,0.1-0.6,0.1-0.8c0-0.5-0.4-0.8-0.9-0.8s-1,0.3-1.3,0.6c-0.4,0.3-0.5,0.6-0.6,1C96,58,96,58,96,58c-0.8,0-0.8,0-0.8,0
			L96.3,52.9z"/>
		<path clip-path="url(#SVGID_2_)" fill="#FFFFFF" d="M103.2,52.9c1,0,1,0,1,0c-0.1,0.8-0.1,0.8-0.1,0.8c-1.2,0-1.2,0-1.2,0
			c-0.6,3-0.6,3-0.6,3c0,0.1,0,0.3,0,0.4c0,0.3,0.3,0.4,0.5,0.4c0.1,0,0.4-0.1,0.5-0.1c-0.1,0.8-0.1,0.8-0.1,0.8
			c-0.3,0-0.4,0.1-0.6,0.1c-0.6,0-1.2-0.3-1.2-0.9c0-0.1,0-0.3,0-0.5c0.8-3.1,0.8-3.1,0.8-3.1c-0.9,0-0.9,0-0.9,0
			c0.1-0.8,0.1-0.8,0.1-0.8c0.9,0,0.9,0,0.9,0c0.3-1.5,0.3-1.5,0.3-1.5c0.9,0,0.9,0,0.9,0L103.2,52.9z"/>
		<path clip-path="url(#SVGID_2_)" fill="#FFFFFF" d="M105.1,52.9c0.9,0,0.9,0,0.9,0c-0.3,1.1-0.3,1.1-0.3,1.1l0,0
			c0.4-0.8,1-1.3,1.9-1.3c0.1,0,0.1,0,0.3,0c-0.1,0.9-0.1,0.9-0.1,0.9c-0.1,0-0.3,0-0.3,0c-0.3,0-0.4,0-0.5,0.1
			c-0.5,0.1-0.9,0.4-1.2,0.8c-0.3,0.4-0.4,0.9-0.5,1.3C105,58,105,58,105,58c-0.9,0-0.9,0-0.9,0L105.1,52.9z"/>
		<path clip-path="url(#SVGID_2_)" fill="#FFFFFF" d="M110.6,52.8c1.4,0,2.2,0.8,2.2,2.1c0,1.6-1,3.3-2.9,3.3
			c-1.3,0-2.2-0.9-2.2-2.1C107.7,54.3,108.8,52.8,110.6,52.8L110.6,52.8z M110,57.4c1.3,0,1.9-1.4,1.9-2.4c0-0.9-0.4-1.5-1.4-1.5
			c-1.3,0-1.9,1.4-1.9,2.5C108.6,56.9,109.1,57.4,110,57.4L110,57.4z"/>
		<polygon clip-path="url(#SVGID_2_)" fill="#FFFFFF" points="117.8,50.9 118.8,50.9 121.4,56.8 121.4,56.8 122.7,50.9 123.6,50.9 
			122,58 121,58 118.4,52.2 118.4,52.2 117.2,58 116.3,58 117.8,50.9 		"/>
		
			<polygon clip-path="url(#SVGID_2_)" fill="none" stroke="#FFFFFF" stroke-width="0.1252" stroke-linecap="round" stroke-linejoin="round" stroke-miterlimit="10" points="
			117.8,50.9 118.8,50.9 121.4,56.8 121.4,56.8 122.7,50.9 123.6,50.9 122,58 121,58 118.4,52.2 118.4,52.2 117.2,58 116.3,58 
			117.8,50.9 		"/>
		<path clip-path="url(#SVGID_2_)" fill="#FFFFFF" d="M124.1,54.4c0.1-1.1,1.2-1.6,2.3-1.6c1,0,1.9,0.3,1.9,1.4
			c0,0.3-0.1,0.6-0.1,0.9c-0.4,1.4-0.4,1.4-0.4,1.4c0,0.3-0.1,0.5-0.1,0.8s0.1,0.4,0.3,0.4c0,0,0.1-0.1,0.3-0.1
			C128,58,128,58,128,58c-0.1,0.1-0.4,0.1-0.5,0.1c-0.5,0-0.8-0.3-0.8-0.8l0,0c-0.4,0.5-0.9,0.8-1.7,0.8c-0.9,0-1.7-0.4-1.7-1.5
			c0-1.4,1.5-1.5,2.7-1.6c0.9-0.1,1.3-0.1,1.3-0.9c0-0.5-0.6-0.6-1-0.6c-0.6,0-1.3,0.3-1.4,0.9C124.1,54.4,124.1,54.4,124.1,54.4
			L124.1,54.4z M125.2,57.4c0.6,0,1.2-0.3,1.5-0.6c0.3-0.4,0.3-0.9,0.4-1.4l0,0c-0.4,0.3-1,0.3-1.7,0.4s-1.2,0.3-1.2,0.9
			C124.3,57.2,124.7,57.4,125.2,57.4L125.2,57.4z"/>
		<path clip-path="url(#SVGID_2_)" fill="#FFFFFF" d="M133,54.5c0-0.6-0.4-1-1.2-1c-1.3,0-2,1.3-2,2.4c0,0.9,0.4,1.5,1.4,1.5
			c0.6,0,1.3-0.4,1.5-1c0.8,0,0.8,0,0.8,0c-0.3,1.1-1.2,1.8-2.3,1.8c-1.5,0-2.2-0.9-2.2-2.3c0-1.6,1-3.1,2.8-3.1c1.3,0,2,0.5,2,1.8
			H133z"/>
		<path clip-path="url(#SVGID_2_)" fill="#FFFFFF" d="M135.3,52.9h0.9l-1.2,5.1h-0.9L135.3,52.9L135.3,52.9z M136.4,52h-0.9l0.3-1.1
			h0.9L136.4,52L136.4,52z"/>
		
			<path clip-path="url(#SVGID_2_)" fill="none" stroke="#FFFFFF" stroke-width="0.1252" stroke-linecap="round" stroke-linejoin="round" stroke-miterlimit="10" d="
			M135.3,52.9h0.9l-1.2,5.1h-0.9L135.3,52.9L135.3,52.9z M136.4,52h-0.9l0.3-1.1h0.9L136.4,52L136.4,52z"/>
		<path clip-path="url(#SVGID_2_)" fill="#FFFFFF" d="M139.7,52.8c1.4,0,2.2,0.8,2.2,2.1c0,1.6-1.2,3.3-2.9,3.3
			c-1.4,0-2.2-0.9-2.2-2.1C136.7,54.3,137.8,52.8,139.7,52.8L139.7,52.8z M139,57.4c1.3,0,1.9-1.4,1.9-2.4c0-0.9-0.4-1.5-1.4-1.5
			c-1.3,0-2,1.4-2,2.5C137.5,56.9,138,57.4,139,57.4L139,57.4z"/>
		<path clip-path="url(#SVGID_2_)" fill="#FFFFFF" d="M143.4,52.9c0.9,0,0.9,0,0.9,0c-0.1,0.8-0.1,0.8-0.1,0.8l0,0
			c0.4-0.5,1.2-0.9,1.8-0.9c1,0,1.5,0.4,1.5,1.4c0,0.1-0.1,0.5-0.1,1c-0.6,2.9-0.6,2.9-0.6,2.9c-0.9,0-0.9,0-0.9,0
			c0.6-3,0.6-3,0.6-3c0-0.1,0.1-0.6,0.1-0.8c0-0.5-0.4-0.8-0.9-0.8c-0.5,0-1,0.3-1.3,0.6c-0.4,0.3-0.5,0.6-0.6,1
			c-0.6,2.9-0.6,2.9-0.6,2.9c-0.8,0-0.8,0-0.8,0L143.4,52.9z"/>
		<path clip-path="url(#SVGID_2_)" fill="#FFFFFF" d="M148.5,54.4c0.3-1.1,1.3-1.6,2.3-1.6s1.9,0.3,1.9,1.4c0,0.3-0.1,0.6-0.1,0.9
			c-0.4,1.4-0.4,1.4-0.4,1.4c0,0.3-0.1,0.5-0.1,0.8s0.1,0.4,0.3,0.4c0.1,0,0.3-0.1,0.3-0.1c-0.1,0.6-0.1,0.6-0.1,0.6
			c-0.1,0.1-0.4,0.1-0.5,0.1c-0.5,0-0.6-0.3-0.6-0.8l0,0c-0.4,0.5-0.9,0.8-1.8,0.8s-1.7-0.4-1.7-1.5c0-1.4,1.5-1.5,2.7-1.6
			c0.9-0.1,1.4-0.1,1.4-0.9c0-0.5-0.6-0.6-1.2-0.6c-0.6,0-1.3,0.3-1.4,0.9C148.5,54.4,148.5,54.4,148.5,54.4L148.5,54.4z
			 M149.8,57.4c0.6,0,1.2-0.3,1.4-0.6c0.3-0.4,0.4-0.9,0.5-1.4l0,0c-0.4,0.3-1.2,0.3-1.8,0.4s-1.2,0.3-1.2,0.9
			C148.8,57.2,149.3,57.4,149.8,57.4L149.8,57.4z"/>
		<polygon clip-path="url(#SVGID_2_)" fill="#FFFFFF" points="154.8,50.9 155.7,50.9 154.2,58 153.3,58 154.8,50.9 		"/>
		
			<polygon clip-path="url(#SVGID_2_)" fill="none" stroke="#FFFFFF" stroke-width="0.1252" stroke-linecap="round" stroke-linejoin="round" stroke-miterlimit="10" points="
			154.8,50.9 155.7,50.9 154.2,58 153.3,58 154.8,50.9 		"/>
		<path clip-path="url(#SVGID_2_)" fill="#FFFFFF" d="M163,58c-0.8,0-0.8,0-0.8,0c0.1-0.8,0.1-0.8,0.1-0.8l0,0
			c-0.5,0.8-1,0.9-1.7,0.9c-1.4,0-2-0.9-2-2.1c0-1.5,1-3.3,2.8-3.3c0.6,0,1.5,0.3,1.7,0.9l0,0c0.6-2.8,0.6-2.8,0.6-2.8
			c0.8,0,0.8,0,0.8,0L163,58z M160.8,57.4c1.3,0,2-1.5,2-2.5c0-0.8-0.5-1.4-1.3-1.4c-1.4,0-2.2,1.4-2.2,2.5
			C159.4,56.9,159.9,57.4,160.8,57.4L160.8,57.4z"/>
		<path clip-path="url(#SVGID_2_)" fill="#FFFFFF" d="M165.4,55.8c0,0.1,0,0.3,0,0.4c0,0.9,0.6,1.3,1.4,1.3c0.6,0,1.3-0.4,1.4-1
			c0.9,0,0.9,0,0.9,0c-0.3,1.1-1.2,1.8-2.3,1.8c-1.8,0-2.3-1.1-2.3-2c0-2,1.3-3.4,2.7-3.4c1.5,0,2.3,0.9,2.3,2.3
			c0,0.3-0.1,0.5-0.1,0.8C165.4,55.8,165.4,55.8,165.4,55.8L165.4,55.8z M168.6,55c0-0.8-0.3-1.5-1.3-1.5s-1.5,0.6-1.8,1.5H168.6z"
			/>
		<path clip-path="url(#SVGID_2_)" fill="#FFFFFF" d="M178,53c0.1-1.1-0.6-1.5-1.7-1.5c-0.6,0-1.7,0.4-1.7,1.3
			c0,0.6,0.5,0.9,1.3,1.1c0.9,0.3,0.9,0.3,0.9,0.3c0.9,0.3,1.8,0.6,1.8,1.9c0,1.5-1.5,2.1-2.8,2.1c-1.8,0-3.1-0.8-2.9-2.5
			c1,0,1,0,1,0c-0.1,1.4,0.8,1.8,1.9,1.8c0.9,0,1.8-0.4,1.8-1.4c0-0.8-0.5-1-1.3-1.1c-1-0.3-1-0.3-1-0.3c-0.8-0.3-1.5-0.8-1.5-1.9
			c0-1.4,1.3-2,2.6-2c1.5,0,2.7,0.6,2.7,2.3C178,53,178,53,178,53L178,53z"/>
		<path clip-path="url(#SVGID_2_)" fill="#FFFFFF" d="M183.5,58c-0.8,0-0.8,0-0.8,0c0.1-0.8,0.1-0.8,0.1-0.8l0,0
			c-0.4,0.6-1.2,0.9-1.9,0.9c-0.9,0-1.4-0.4-1.4-1.4c0-0.1,0-0.5,0.1-1c0.6-2.9,0.6-2.9,0.6-2.9c0.9,0,0.9,0,0.9,0
			c-0.6,3-0.6,3-0.6,3c-0.1,0.3-0.1,0.6-0.1,0.8c0,0.5,0.4,0.8,0.9,0.8c0.9,0,1.7-0.8,1.9-1.6c0.5-2.9,0.5-2.9,0.5-2.9
			c0.9,0,0.9,0,0.9,0L183.5,58z"/>
		<path clip-path="url(#SVGID_2_)" fill="#FFFFFF" d="M186,52.9c0.8,0,0.8,0,0.8,0c-0.1,0.8-0.1,0.8-0.1,0.8l0,0
			c0.5-0.6,1-0.9,1.8-0.9c1.3,0,2,0.9,2,2.1c0,1.5-1.2,3.3-2.9,3.3c-0.6,0-1.4-0.3-1.7-0.9l0,0c-0.5,2.8-0.5,2.8-0.5,2.8
			c-0.9,0-0.9,0-0.9,0L186,52.9z M188.3,53.5c-1.4,0-2.2,1.5-2.2,2.5c0,0.9,0.5,1.4,1.4,1.4c1.4,0,2-1.4,2-2.5
			C189.6,54,189.2,53.5,188.3,53.5L188.3,53.5z"/>
		<path clip-path="url(#SVGID_2_)" fill="#FFFFFF" d="M192,55.8c0,0.1,0,0.3,0,0.4c0,0.9,0.6,1.3,1.3,1.3c0.8,0,1.3-0.4,1.5-1
			c0.9,0,0.9,0,0.9,0c-0.3,1.1-1.3,1.8-2.4,1.8c-1.7,0-2.2-1.1-2.2-2c0-2,1.3-3.4,2.7-3.4c1.5,0,2.2,0.9,2.2,2.3c0,0.3,0,0.5,0,0.8
			C192,55.8,192,55.8,192,55.8L192,55.8z M195.2,55c0-0.8-0.3-1.5-1.3-1.5s-1.5,0.6-1.8,1.5H195.2z"/>
		<path clip-path="url(#SVGID_2_)" fill="#FFFFFF" d="M197.5,52.9c0.8,0,0.8,0,0.8,0C198,54,198,54,198,54l0,0
			c0.5-0.8,1.2-1.3,1.9-1.3c0.1,0,0.3,0,0.4,0c-0.3,0.9-0.3,0.9-0.3,0.9s-0.1,0-0.3,0s-0.3,0-0.5,0.1c-0.5,0.1-0.8,0.4-1.2,0.8
			c-0.1,0.4-0.3,0.9-0.4,1.3c-0.5,2.3-0.5,2.3-0.5,2.3c-0.9,0-0.9,0-0.9,0L197.5,52.9z"/>
		<path clip-path="url(#SVGID_2_)" fill="#FFFFFF" d="M204.1,54.5c0-0.6-0.4-1-1-1c-1.4,0-2,1.3-2,2.4c0,0.9,0.3,1.5,1.3,1.5
			c0.8,0,1.3-0.4,1.5-1c0.9,0,0.9,0,0.9,0c-0.4,1.1-1.3,1.8-2.4,1.8c-1.4,0-2.2-0.9-2.2-2.3c0-1.6,1-3.1,2.9-3.1
			c1.2,0,1.9,0.5,1.9,1.8H204.1z"/>
		<path clip-path="url(#SVGID_2_)" fill="#FFFFFF" d="M208.4,52.8c1.4,0,2.2,0.8,2.2,2.1c0,1.6-1,3.3-2.8,3.3
			c-1.4,0-2.3-0.9-2.3-2.1C205.5,54.3,206.6,52.8,208.4,52.8L208.4,52.8z M207.8,57.4c1.3,0,2-1.4,2-2.4c0-0.9-0.5-1.5-1.4-1.5
			c-1.4,0-2,1.4-2,2.5C206.4,56.9,206.9,57.4,207.8,57.4L207.8,57.4z"/>
		<path clip-path="url(#SVGID_2_)" fill="#FFFFFF" d="M212.3,52.9c0.8,0,0.8,0,0.8,0c-0.1,0.8-0.1,0.8-0.1,0.8l0,0
			c0.4-0.5,1.2-0.9,1.8-0.9c0.6,0,1.2,0.3,1.3,0.9c0.5-0.5,1.2-0.9,1.9-0.9c0.6,0,1.4,0.4,1.4,1.1c0,0.4-0.1,0.8-0.1,1
			c-0.6,3.1-0.6,3.1-0.6,3.1c-0.9,0-0.9,0-0.9,0c0.8-3.3,0.8-3.3,0.8-3.3c0-0.1,0-0.4,0-0.5c0-0.5-0.3-0.8-0.8-0.8s-1,0.4-1.3,0.8
			c-0.4,0.3-0.4,0.6-0.5,1.1c-0.6,2.6-0.6,2.6-0.6,2.6c-0.8,0-0.8,0-0.8,0c0.5-2.9,0.5-2.9,0.5-2.9c0.1-0.5,0.3-0.9,0.3-1
			c0-0.4-0.3-0.6-0.8-0.6s-1,0.4-1.3,0.6c-0.4,0.4-0.5,0.8-0.5,1.3C212,58,212,58,212,58c-0.9,0-0.9,0-0.9,0L212.3,52.9z"/>
		<path clip-path="url(#SVGID_2_)" fill="#FFFFFF" d="M220.8,52.9c0.9,0,0.9,0,0.9,0c-0.3,0.8-0.3,0.8-0.3,0.8c0.1,0,0.1,0,0.1,0
			c0.5-0.6,1-0.9,1.7-0.9c1.4,0,2,0.9,2,2.1c0,1.5-1,3.3-2.9,3.3c-0.6,0-1.4-0.3-1.5-0.9c-0.1,0-0.1,0-0.1,0
			c-0.5,2.8-0.5,2.8-0.5,2.8c-0.9,0-0.9,0-0.9,0L220.8,52.9z M223.1,53.5c-1.3,0-2,1.5-2,2.5c0,0.9,0.4,1.4,1.3,1.4
			c1.4,0,2-1.4,2-2.5C224.4,54,224,53.5,223.1,53.5L223.1,53.5z"/>
		<path clip-path="url(#SVGID_2_)" fill="#FFFFFF" d="M230,58c-0.8,0-0.8,0-0.8,0c0.1-0.8,0.1-0.8,0.1-0.8l0,0
			c-0.5,0.6-1.2,0.9-1.9,0.9c-1,0-1.4-0.4-1.4-1.4c0-0.1,0-0.5,0.1-1c0.6-2.9,0.6-2.9,0.6-2.9c0.9,0,0.9,0,0.9,0c-0.8,3-0.8,3-0.8,3
			c0,0.3-0.1,0.6-0.1,0.8c0,0.5,0.5,0.8,1,0.8c0.9,0,1.7-0.8,1.8-1.6c0.6-2.9,0.6-2.9,0.6-2.9c0.9,0,0.9,0,0.9,0L230,58z"/>
		<path clip-path="url(#SVGID_2_)" fill="#FFFFFF" d="M233.8,52.9c1,0,1,0,1,0c-0.1,0.8-0.1,0.8-0.1,0.8c-1,0-1,0-1,0
			c-0.6,3-0.6,3-0.6,3c0,0.1,0,0.3,0,0.4c0,0.3,0.3,0.4,0.5,0.4c0.1,0,0.3-0.1,0.5-0.1c-0.3,0.8-0.3,0.8-0.3,0.8
			c-0.1,0-0.4,0.1-0.5,0.1c-0.6,0-1.3-0.3-1.3-0.9c0-0.1,0.1-0.3,0.1-0.5c0.6-3.1,0.6-3.1,0.6-3.1c-0.9,0-0.9,0-0.9,0
			c0.3-0.8,0.3-0.8,0.3-0.8c0.8,0,0.8,0,0.8,0c0.4-1.5,0.4-1.5,0.4-1.5c0.9,0,0.9,0,0.9,0L233.8,52.9z"/>
		<path clip-path="url(#SVGID_2_)" fill="#FFFFFF" d="M235.3,54.4c0.1-1.1,1.2-1.6,2.3-1.6c1,0,1.9,0.3,1.9,1.4
			c0,0.3-0.1,0.6-0.3,0.9c-0.3,1.4-0.3,1.4-0.3,1.4c0,0.3-0.1,0.5-0.1,0.8s0.1,0.4,0.3,0.4c0,0,0.1-0.1,0.3-0.1
			c-0.1,0.6-0.1,0.6-0.1,0.6c-0.1,0.1-0.4,0.1-0.5,0.1c-0.5,0-0.8-0.3-0.8-0.8l0,0c-0.4,0.5-0.9,0.8-1.8,0.8c-0.8,0-1.5-0.4-1.5-1.5
			c0-1.4,1.5-1.5,2.7-1.6c0.9-0.1,1.3-0.1,1.3-0.9c0-0.5-0.6-0.6-1-0.6c-0.6,0-1.4,0.3-1.4,0.9C235.3,54.4,235.3,54.4,235.3,54.4
			L235.3,54.4z M236.4,57.4c0.6,0,1.2-0.3,1.5-0.6c0.3-0.4,0.3-0.9,0.4-1.4l0,0c-0.4,0.3-1,0.3-1.7,0.4c-0.6,0.1-1.2,0.3-1.2,0.9
			C235.5,57.2,235.9,57.4,236.4,57.4L236.4,57.4z"/>
		<path clip-path="url(#SVGID_2_)" fill="#FFFFFF" d="M244.2,54.5c0-0.6-0.4-1-1.2-1c-1.3,0-2,1.3-2,2.4c0,0.9,0.4,1.5,1.4,1.5
			c0.6,0,1.3-0.4,1.5-1c0.8,0,0.8,0,0.8,0c-0.3,1.1-1.2,1.8-2.3,1.8c-1.5,0-2.2-0.9-2.2-2.3c0-1.6,1-3.1,2.8-3.1
			c1.3,0,1.9,0.5,2,1.8H244.2z"/>
		<path clip-path="url(#SVGID_2_)" fill="#FFFFFF" d="M246.5,52.9h0.9l-1.2,5.1h-0.9L246.5,52.9L246.5,52.9z M247.6,52h-0.9l0.3-1.1
			h0.9L247.6,52L247.6,52z"/>
		
			<path clip-path="url(#SVGID_2_)" fill="none" stroke="#FFFFFF" stroke-width="0.1252" stroke-linecap="round" stroke-linejoin="round" stroke-miterlimit="10" d="
			M246.5,52.9h0.9l-1.2,5.1h-0.9L246.5,52.9L246.5,52.9z M247.6,52h-0.9l0.3-1.1h0.9L247.6,52L247.6,52z"/>
		<path clip-path="url(#SVGID_2_)" fill="#FFFFFF" d="M250.9,52.8c1.4,0,2.2,0.8,2.2,2.1c0,1.6-1.2,3.3-2.9,3.3
			c-1.4,0-2.2-0.9-2.2-2.1C248,54.3,249,52.8,250.9,52.8L250.9,52.8z M250.3,57.4c1.3,0,1.9-1.4,1.9-2.4c0-0.9-0.4-1.5-1.4-1.5
			c-1.3,0-2,1.4-2,2.5C248.7,56.9,249.2,57.4,250.3,57.4L250.3,57.4z M251.7,50.8c1.2,0,1.2,0,1.2,0c-1.4,1.4-1.4,1.4-1.4,1.4
			c-0.8,0-0.8,0-0.8,0L251.7,50.8z"/>
		<path clip-path="url(#SVGID_2_)" fill="#FFFFFF" d="M254.6,52.9c0.9,0,0.9,0,0.9,0c-0.3,0.8-0.3,0.8-0.3,0.8c0.1,0,0.1,0,0.1,0
			c0.4-0.5,1.2-0.9,1.8-0.9c1,0,1.5,0.4,1.5,1.4c0,0.1-0.1,0.5-0.1,1c-0.8,2.9-0.8,2.9-0.8,2.9c-0.8,0-0.8,0-0.8,0
			c0.6-3,0.6-3,0.6-3c0-0.1,0.1-0.6,0.1-0.8c0-0.5-0.4-0.8-0.9-0.8s-1,0.3-1.3,0.6c-0.4,0.3-0.5,0.6-0.6,1c-0.6,2.9-0.6,2.9-0.6,2.9
			c-0.8,0-0.8,0-0.8,0L254.6,52.9z"/>
		<path clip-path="url(#SVGID_2_)" fill="#FFFFFF" d="M41.8,4.4c2.4,0,7.7,1.1,9.6,1.6C31.5,5.2,19.1,18.3,19.1,33.4
			c0,10.8,6.5,22.7,22.3,26.3c-18.3,0.3-28.9-14.5-28.9-27.4C12.5,16,26.8,4.4,41.8,4.4L41.8,4.4z"/>
		<path clip-path="url(#SVGID_2_)" fill="#FFFFFF" d="M31.2,0.3c3.2,0,7.4,1,10.5,1.9c-1.3-0.1-3.3-0.1-4.1-0.1
			C19.3,2.1,8.3,17.8,8.3,32.4c0,12.5,7,25.8,24.2,29.6C12.1,62.4,1.2,45.1,1.2,31.1C1.2,14.7,14.5,0.3,31.2,0.3L31.2,0.3z"/>
		<path clip-path="url(#SVGID_2_)" fill="#FFFFFF" d="M38.2,29.7c-1.7,0-1.7,0-1.7,0c-0.3,1.6-0.3,1.6-0.3,1.6c1.8,0,1.8,0,1.8,0
			c0.5,0,1.2-0.3,1.2-0.9S38.8,29.7,38.2,29.7L38.2,29.7z M37.6,33.2c-1.8,0-1.8,0-1.8,0c-0.4,1.9-0.4,1.9-0.4,1.9c2,0,2,0,2,0
			c0.6,0,1.4-0.3,1.4-1S38.3,33.2,37.6,33.2L37.6,33.2z M48.3,8.3c-13.8,0-25,11-25,24.5c0,13.4,11.1,24.4,25,24.4
			c13.8,0,25-11,25-24.4C73.3,19.3,62.1,8.3,48.3,8.3L48.3,8.3z M42,34.1c0,2.5-1.9,3.5-4.2,3.5c-6,0-6,0-6,0
			C34,27.4,34,27.4,34,27.4c5.4,0,5.4,0,5.4,0c2.2,0,3.1,0.8,3.1,2.3c0,1.3-0.6,2.1-1.9,2.4l0,0c0,0.1,0,0.1,0,0.1
			C41.5,32.2,42,33.1,42,34.1L42,34.1z M50.2,31.4c1.8,0.6,2.4,1.6,2.4,2.8c0,2.5-2.4,3.8-4.7,3.8c-2.4,0-4.6-1.1-4.5-3.8
			c3.2,0,3.2,0,3.2,0c0,0.6,0.1,0.9,0.4,1.1s0.6,0.3,1.2,0.3c0.6,0,1.4-0.3,1.4-1c0-0.6-1-0.8-2.6-1.3c-1.3-0.4-2.4-1.1-2.4-2.8
			c0-2.4,2.3-3.4,4.4-3.4c2.2,0,4.2,0.8,4.2,3.3c-3.1,0-3.1,0-3.1,0c0.1-0.4-0.1-0.6-0.3-0.8c-0.3-0.3-0.6-0.3-1-0.3
			c-0.5,0-1.3,0.1-1.3,0.8C47.5,31,49.2,31,50.2,31.4L50.2,31.4z M59.6,35.2c0.9,0,1.5-0.6,1.8-1.6c3.1,0,3.1,0,3.1,0l0,0
			c-0.1,1.1-1,4.3-5.4,4.3c-2.9,0-4.5-2-4.5-4.8c0-3.3,2.2-6,5.6-6c2.4,0,4.5,1,4.5,4c-2.9,0-2.9,0-2.9,0c0-1-0.5-1.5-1.5-1.5
			c-1.8,0-2.4,2-2.4,3.5C57.8,34,58,35.2,59.6,35.2L59.6,35.2z"/>
	</g>
</g>
</svg>
