<?xml version="1.0" encoding="utf-8"?>
<!-- Generator: Adobe Illustrator 19.0.0, SVG Export Plug-In . SVG Version: 6.00 Build 0)  -->
<!DOCTYPE svg PUBLIC "-//W3C//DTD SVG 1.1//EN" "http://www.w3.org/Graphics/SVG/1.1/DTD/svg11.dtd">
<svg version="1.1" id="Layer_1" xmlns="http://www.w3.org/2000/svg" xmlns:xlink="http://www.w3.org/1999/xlink" x="0px" y="0px"
	 viewBox="0 0 254 145" enable-background="new 0 0 254 145" xml:space="preserve">
<g id="XMLID_29_">
	<path id="XMLID_60_" fill="#A6D20E" d="M76.9,37.7h7.9v19.6c0,6.9,2.1,9.2,6.1,9.2s6.2-2.4,6.2-9.2V37.7h7.6v18.8
		c0,11.8-4.8,16.9-13.8,16.9s-14-5.1-14-16.9V37.7z"/>
	<path id="XMLID_62_" fill="#A6D20E" d="M112.6,35.1h7.7v21.6h0.2l8.4-10.6h8.6L128.2,57l10,15.7h-8.5l-6-10.4l-3.4,3.8v6.5h-7.7
		V35.1z"/>
	<path id="XMLID_64_" fill="#A6D20E" d="M144.7,35.1h7.7v21.6h0.2l8.4-10.6h8.6L160.3,57l10,15.7h-8.5l-6-10.4l-3.4,3.8v6.5h-7.7
		V35.1z"/>
	<path id="XMLID_66_" fill="#A6D20E" d="M186.6,45.4c6.7,0,12.9,5.1,12.9,14c0,8.9-6.2,14-12.9,14c-6.8,0-13-5.1-13-14
		C173.7,50.5,179.9,45.4,186.6,45.4z M186.6,66.9c3.2,0,4.9-3,4.9-7.6s-1.7-7.6-4.9-7.6c-3.3,0-4.9,3-4.9,7.6S183.4,66.9,186.6,66.9
		z"/>
</g>
<g id="XMLID_28_">
	<path id="XMLID_43_" fill="#FFFFFF" d="M77,13.6h2.8c2.3,0,3.7,0.8,3.7,2.9c0,2-1.4,3-3.7,3h-2.1V24H77V13.6z M79.6,18.9
		c2.1,0,3.1-0.7,3.1-2.4c0-1.7-1-2.3-3.1-2.3h-1.9v4.7H79.6z"/>
	<path id="XMLID_46_" fill="#FFFFFF" d="M92.5,24l-2.8-4.8h-2.2V24h-0.7V13.6h3c2.1,0,3.4,0.8,3.4,2.7c0,1.7-1,2.6-2.7,2.8l2.9,4.8
		H92.5z M89.5,18.6c1.8,0,2.9-0.7,2.9-2.3c0-1.6-1-2.1-2.9-2.1h-2v4.4H89.5z"/>
	<path id="XMLID_49_" fill="#FFFFFF" d="M96.2,18.8c0-3.3,1.8-5.3,4.3-5.3c2.5,0,4.3,2.1,4.3,5.3c0,3.3-1.8,5.4-4.3,5.4
		C98,24.2,96.2,22.1,96.2,18.8z M104,18.8c0-2.9-1.4-4.7-3.5-4.7c-2.1,0-3.5,1.8-3.5,4.7c0,2.9,1.4,4.8,3.5,4.8
		C102.6,23.5,104,21.7,104,18.8z"/>
	<path id="XMLID_52_" fill="#FFFFFF" d="M107.8,22.3c0.5,0.9,1.1,1.2,2,1.2c1.3,0,1.9-0.7,1.9-2.4v-7.5h0.7v7.6c0,1.7-0.7,3-2.6,3
		c-1.2,0-2-0.6-2.6-1.5L107.8,22.3z"/>
	<path id="XMLID_54_" fill="#FFFFFF" d="M116.6,13.6h5.7v0.6h-4.9v3.9h4.2v0.6h-4.2v4.6h5.1V24h-5.8V13.6z"/>
	<path id="XMLID_56_" fill="#FFFFFF" d="M129.7,13.4c1.2,0,2.1,0.6,2.7,1.2l-0.4,0.5c-0.6-0.6-1.3-1.1-2.3-1.1
		c-2.3,0-3.7,1.8-3.7,4.7c0,2.9,1.4,4.7,3.6,4.7c1.1,0,1.9-0.4,2.6-1.3l0.4,0.5c-0.8,0.9-1.7,1.5-3.1,1.5c-2.6,0-4.4-2.1-4.4-5.4
		C125.3,15.5,127.1,13.4,129.7,13.4z"/>
	<path id="XMLID_58_" fill="#FFFFFF" d="M138.4,14.3h-3.3v-0.6h7.3v0.6h-3.3V24h-0.7V14.3z"/>
</g>
<g id="XMLID_26_">
	
		<rect id="XMLID_27_" x="218.5" y="7" transform="matrix(0.5074 0.8617 -0.8617 0.5074 125.0056 -181.9951)" fill="#FFFFFF" width="6.3" height="22.8"/>
</g>
<g id="XMLID_24_">
	
		<rect id="XMLID_25_" x="169.4" y="7" transform="matrix(0.7302 0.6833 -0.6833 0.7302 58.8463 -112.3294)" fill="#565C6C" width="4.5" height="22.8"/>
</g>
<g id="XMLID_22_">
	
		<rect id="XMLID_23_" x="44.3" y="32.2" transform="matrix(0.3421 0.9397 -0.9397 0.3421 71.5897 -15.0312)" fill="#565C6C" width="4.5" height="22.8"/>
</g>
<g id="XMLID_20_">
	
		<rect id="XMLID_21_" x="44.3" y="108" transform="matrix(0.3421 0.9397 -0.9397 0.3421 142.8283 34.8452)" fill="#565C6C" width="4.5" height="22.8"/>
</g>
<g id="XMLID_18_">
	
		<rect id="XMLID_19_" x="69.3" y="108" transform="matrix(0.4999 0.8661 -0.8661 0.4999 139.2103 -2.2475)" fill="#565C6C" width="4.5" height="22.8"/>
</g>
<g id="XMLID_16_">
	
		<rect id="XMLID_17_" x="119.8" y="82.8" transform="matrix(0.7661 0.6428 -0.6428 0.7661 88.9635 -56.1319)" fill="#262D42" width="3.6" height="22.8"/>
</g>
<g id="XMLID_14_">
	
		<rect id="XMLID_15_" x="194" y="7" transform="matrix(0.678 0.735 -0.735 0.678 76.7967 -138.6477)" fill="#B6B8C0" width="5.4" height="22.8"/>
</g>
<g id="XMLID_12_">
	
		<rect id="XMLID_13_" x="93.9" y="82.8" transform="matrix(0.6428 0.766 -0.766 0.6428 106.6234 -40.3478)" fill="#B6B8C0" width="5.4" height="22.8"/>
</g>
<g id="XMLID_10_">
	
		<rect id="XMLID_11_" x="43.8" y="82.8" transform="matrix(0.3421 0.9397 -0.9397 0.3421 119.0869 18.2244)" fill="#B6B8C0" width="5.4" height="22.8"/>
</g>
<g id="XMLID_8_">
	
		<rect id="XMLID_9_" x="43.8" y="57.5" transform="matrix(0.3421 0.9397 -0.9397 0.3421 95.3405 1.5976)" fill="#B6B8C0" width="5.4" height="22.8"/>
</g>
<g id="XMLID_6_">
	
		<rect id="XMLID_7_" x="68.4" y="82.8" transform="matrix(0.5001 0.866 -0.866 0.5001 117.2995 -14.8952)" fill="#FFFFFF" width="6.3" height="22.8"/>
</g>
<g id="XMLID_4_">
	
		<rect id="XMLID_5_" x="18.9" y="82.8" transform="matrix(0.202 0.9794 -0.9794 0.202 108.6944 54.9067)" fill="#262D42" width="3.6" height="22.8"/>
</g>
<g id="XMLID_2_">
	
		<rect id="XMLID_3_" x="18.4" y="57.5" transform="matrix(0.2021 0.9794 -0.9794 0.2021 83.9386 34.7311)" fill="#565C6C" width="4.5" height="22.8"/>
</g>
<g id="XMLID_42_">
</g>
<g id="XMLID_69_">
</g>
<g id="XMLID_70_">
</g>
<g id="XMLID_71_">
</g>
<g id="XMLID_72_">
</g>
<g id="XMLID_73_">
</g>
<g id="XMLID_74_">
</g>
<g id="XMLID_75_">
</g>
<g id="XMLID_76_">
</g>
<g id="XMLID_77_">
</g>
<g id="XMLID_78_">
</g>
<g id="XMLID_79_">
</g>
<g id="XMLID_80_">
</g>
<g id="XMLID_81_">
</g>
<g id="XMLID_82_">
</g>
</svg>
