<?xml version="1.0" encoding="utf-8"?>
<!-- Generator: Adobe Illustrator 19.0.0, SVG Export Plug-In . SVG Version: 6.00 Build 0)  -->
<!DOCTYPE svg PUBLIC "-//W3C//DTD SVG 1.1//EN" "http://www.w3.org/Graphics/SVG/1.1/DTD/svg11.dtd">
<svg version="1.1" id="Layer_1" xmlns="http://www.w3.org/2000/svg" xmlns:xlink="http://www.w3.org/1999/xlink" x="0px" y="0px"
	 viewBox="0 0 254 145" enable-background="new 0 0 254 145" xml:space="preserve">
<g id="XMLID_3_">
	<g id="XMLID_5_">
		<path id="XMLID_23_" fill="#A6D20E" d="M16.8,59.9h14.5v36c0,12.6,3.9,17,11.2,17s11.4-4.3,11.4-17v-36h14v34.5
			c0,21.6-8.8,31-25.5,31s-25.7-9.4-25.7-31V59.9z"/>
		<path id="XMLID_25_" fill="#A6D20E" d="M82.4,55.1h14.1v39.7h0.4l15.5-19.4h15.8L111,95.5l18.5,28.8h-15.7l-11.1-19l-6.2,7v12
			H82.4V55.1z"/>
		<path id="XMLID_27_" fill="#A6D20E" d="M141.4,55.1h14.1v39.7h0.4l15.5-19.4h15.8L170,95.5l18.5,28.8h-15.7l-11.1-19l-6.2,7v12
			h-14.1V55.1z"/>
		<path id="XMLID_29_" fill="#A6D20E" d="M218.5,74.2c12.3,0,23.8,9.4,23.8,25.7c0,16.3-11.4,25.7-23.8,25.7
			c-12.4,0-23.9-9.4-23.9-25.7C194.6,83.5,206.1,74.2,218.5,74.2z M218.5,113.7c5.9,0,9-5.4,9-13.9s-3.1-13.9-9-13.9
			c-6,0-9,5.4-9,13.9S212.5,113.7,218.5,113.7z"/>
	</g>
	<g id="XMLID_4_">
		<path id="XMLID_6_" fill="#FFFFFF" d="M16.8,15.7H22c4.3,0,6.8,1.4,6.8,5.3c0,3.7-2.6,5.6-6.8,5.6h-3.9v8.2h-1.3V15.7z M21.7,25.5
			c3.9,0,5.8-1.3,5.8-4.4c0-3.2-1.9-4.2-5.8-4.2h-3.5v8.6H21.7z"/>
		<path id="XMLID_9_" fill="#FFFFFF" d="M45.4,34.8L40.2,26h-4.1v8.8h-1.3V15.7h5.4c3.8,0,6.3,1.4,6.3,5c0,3-1.9,4.8-4.9,5.2
			l5.2,8.9H45.4z M39.9,24.9c3.4,0,5.2-1.4,5.2-4.2c0-2.9-1.9-3.9-5.2-3.9h-3.8v8.1H39.9z"/>
		<path id="XMLID_12_" fill="#FFFFFF" d="M52.2,25.2c0-6,3.3-9.8,7.9-9.8c4.6,0,7.9,3.8,7.9,9.8c0,6.1-3.3,10-7.9,10
			C55.4,35.2,52.2,31.2,52.2,25.2z M66.5,25.2c0-5.3-2.6-8.6-6.5-8.6c-3.9,0-6.5,3.3-6.5,8.6c0,5.3,2.6,8.8,6.5,8.8
			C63.9,33.9,66.5,30.5,66.5,25.2z"/>
		<path id="XMLID_15_" fill="#FFFFFF" d="M73.5,31.7c1,1.6,2.1,2.3,3.7,2.3c2.3,0,3.4-1.4,3.4-4.5V15.7H82v13.9
			c0,3.1-1.3,5.5-4.8,5.5c-2.1,0-3.7-1-4.7-2.8L73.5,31.7z"/>
		<path id="XMLID_17_" fill="#FFFFFF" d="M89.6,15.7h10.4v1.2H91v7.2h7.6v1.2H91v8.4h9.4v1.2H89.6V15.7z"/>
		<path id="XMLID_19_" fill="#FFFFFF" d="M113.9,15.4c2.2,0,3.9,1.1,5,2.3l-0.8,0.9c-1-1.2-2.4-1.9-4.2-1.9c-4.2,0-6.8,3.3-6.8,8.6
			s2.6,8.7,6.7,8.7c2,0,3.4-0.8,4.8-2.3l0.8,0.8c-1.4,1.7-3.2,2.7-5.7,2.7c-4.7,0-8-3.9-8-9.9C105.7,19.2,109,15.4,113.9,15.4z"/>
		<path id="XMLID_21_" fill="#FFFFFF" d="M129.8,16.9h-6.1v-1.2h13.5v1.2h-6.1v17.9h-1.3V16.9z"/>
	</g>
</g>
<g id="XMLID_2_">
</g>
<g id="XMLID_44_">
</g>
<g id="XMLID_45_">
</g>
<g id="XMLID_46_">
</g>
<g id="XMLID_47_">
</g>
<g id="XMLID_48_">
</g>
<g id="XMLID_49_">
</g>
<g id="XMLID_50_">
</g>
<g id="XMLID_51_">
</g>
<g id="XMLID_52_">
</g>
<g id="XMLID_53_">
</g>
<g id="XMLID_54_">
</g>
<g id="XMLID_55_">
</g>
<g id="XMLID_56_">
</g>
<g id="XMLID_57_">
</g>
</svg>
